<svg width="65" height="65" viewBox="0 0 65 65" fill="none" xmlns="http://www.w3.org/2000/svg">
<path fill-rule="evenodd" clip-rule="evenodd" d="M30.1142 0.0515956C25.7871 0.339898 21.9002 1.36318 17.8958 3.26838C14.1227 5.06356 10.1825 8.17629 7.29299 11.6445C3.97969 15.6214 1.5726 20.663 0.546898 25.7741C0.0669816 28.166 0.00457399 28.9097 0.000130312 32.2872C-0.00263464 34.4874 0.0385434 35.8224 0.129096 36.4655C0.933302 42.1738 2.91785 47.1153 6.22414 51.6428C9.33323 55.9002 13.3417 59.2959 18.0491 61.6599C21.3354 63.3104 24.3997 64.2414 28.2874 64.771C29.907 64.9915 33.6669 65.073 35.4073 64.9252C41.4677 64.4103 46.681 62.4463 51.619 58.8175C56.9095 54.9297 61.1228 49.1972 63.279 42.9529C64.5834 39.1754 65.0805 35.8882 64.9895 31.6406C64.9109 27.9655 64.433 25.1236 63.3583 21.941C62.0396 18.0358 60.0266 14.4457 57.4169 11.3455C56.4873 10.2412 54.3095 8.12306 53.0971 7.14405C49.0026 3.83812 43.9455 1.50375 38.8245 0.555876C36.4625 0.118647 32.5269 -0.109169 30.1142 0.0515956ZM29.0774 3.24252C26.7849 3.52157 24.3807 4.07241 22.56 4.73556C19.3111 5.91882 16.3567 7.56825 13.8701 9.58686C12.7371 10.5067 10.3804 12.8544 9.5564 13.884C6.08964 18.2165 4.1519 22.6776 3.29111 28.3079C3.00178 30.2002 2.97818 34.0343 3.24391 35.9681C4.07992 42.0517 6.28556 46.9989 10.2296 51.6367C14.8346 57.0519 21.3735 60.6128 28.5836 61.632C29.5262 61.7652 32.1339 61.9186 32.7804 61.8789C33.052 61.8622 33.8296 61.8214 34.5085 61.7884C39.2786 61.5557 44.388 59.8368 48.6622 57.0267C53.8114 53.6414 57.9506 48.3975 60.1273 42.5015C61.3449 39.2034 61.8618 36.1893 61.8618 32.3867C61.8618 27.4741 60.9149 23.453 58.7449 19.1511C54.4308 10.5983 46.572 4.93164 36.9278 3.4196C35.9095 3.25993 35.042 3.21148 32.731 3.18532C31.1289 3.16721 29.4847 3.19298 29.0774 3.24252ZM17.3613 12.0615C16.8236 12.1675 16.852 11.638 16.8189 22.1897C16.7916 30.93 16.8055 32.042 16.9534 32.9339C17.2025 34.4347 17.5672 35.5916 18.2093 36.9172C20.2987 41.2308 24.0786 43.6829 29.6205 44.3203C30.745 44.4496 33.5776 44.4509 34.8048 44.3227C37.6111 44.0293 40.1205 43.1691 42.2109 41.7839C43.1512 41.1608 44.7763 39.5299 45.4526 38.5308C46.8012 36.5382 47.5393 34.3365 47.7456 31.6903C47.7947 31.0611 47.8359 26.5026 47.8372 21.5603L47.8395 12.5742L47.5509 12.2835L47.2623 11.9927H42.8668C40.0646 11.9927 38.3734 12.0302 38.2014 12.096C37.6475 12.3082 37.675 11.8049 37.6716 21.8102C37.6682 32.0866 37.6804 31.8695 37.0245 33.2434C36.3665 34.6216 35.1173 35.5887 33.5704 35.9173C31.007 36.4618 28.6334 35.3738 27.5511 33.1581C26.9008 31.8269 26.9049 31.899 26.9049 21.7414C26.9049 16.7168 26.8772 12.5334 26.8436 12.4448C26.6786 12.0118 26.4556 11.992 21.8984 12.0062C19.5195 12.0137 17.4778 12.0385 17.3613 12.0615ZM33.3988 15.3005C33.3191 15.4236 32.3085 17.0464 31.1531 18.9067C29.9978 20.7671 28.9845 22.3676 28.9015 22.4633C28.7586 22.628 28.8237 22.6374 30.1116 22.6374H31.4728L31.4032 23.1596C31.067 25.6814 30.8586 27.4121 30.8609 27.6613C30.8635 27.9488 30.869 27.9524 31.0117 27.7607C31.0932 27.6513 31.4634 27.0693 31.8345 26.4675C32.2055 25.8656 33.2222 24.2316 34.094 22.8363L35.6788 20.2995L34.343 20.2717C33.0183 20.2443 33.0077 20.2422 33.062 20.023C33.092 19.9016 33.2289 18.8844 33.3663 17.7627C33.5037 16.641 33.6364 15.5778 33.6611 15.4C33.7135 15.0234 33.6049 14.9822 33.3988 15.3005ZM25.5224 46.3668C24.2248 46.7308 23.5319 47.5161 23.4657 48.6987C23.422 49.4772 23.6268 49.9923 24.1603 50.4455C24.5938 50.8137 24.9404 50.9506 26.4116 51.3347C27.776 51.6909 28.0703 51.8287 28.1511 52.1488C28.3199 52.8183 27.8634 53.1783 26.8454 53.1785C26.1227 53.1787 25.6229 52.9001 25.4807 52.4178C25.3907 52.1122 25.3812 52.1084 24.592 52.0527C23.3926 51.9682 23.3064 51.9897 23.2685 52.3814C23.1916 53.1751 23.856 54.1046 24.8246 54.5581C25.2946 54.7782 25.5423 54.821 26.5322 54.8531C27.4965 54.8844 27.8034 54.8561 28.3675 54.6835C29.1664 54.439 29.8435 53.8944 30.1553 53.2456C30.4296 52.6748 30.4383 51.6313 30.1732 51.1104C29.7815 50.3409 29.2532 50.0505 27.42 49.597C25.9699 49.2382 25.6212 49.0437 25.6212 48.5938C25.6212 48.1268 26.0914 47.8869 26.9247 47.9287C27.4594 47.9554 27.6348 48.0076 27.8382 48.2C27.9766 48.331 28.0899 48.5423 28.0899 48.6695C28.0899 48.897 28.1074 48.9009 29.1267 48.9009C30.1363 48.9009 30.1636 48.895 30.163 48.6771C30.1609 47.835 29.5322 46.9999 28.5737 46.5666C27.8094 46.221 26.3767 46.1272 25.5224 46.3668ZM15.0551 49.1785C15.0551 52.2222 15.1316 52.8047 15.6254 53.5174C16.2919 54.4797 17.2341 54.8922 18.7597 54.8897C20.2776 54.8872 21.2006 54.4901 21.8781 53.5479C22.453 52.7482 22.5163 52.205 22.4799 48.3786L22.4612 46.4138H21.375H20.2888L20.2886 49.2242C20.2885 51.7019 20.268 52.0754 20.1157 52.3794C19.8843 52.8417 19.4129 53.1022 18.8075 53.1022C18.1643 53.1022 17.7292 52.8403 17.4497 52.2848C17.2355 51.8589 17.2276 51.7466 17.2276 49.1285V46.4138H16.1413H15.0551V49.1785ZM31.2498 50.5921V54.777L32.3385 54.7488L33.4271 54.7207V50.5921V46.4636L32.3385 46.4354L31.2498 46.4073V50.5921ZM34.6073 50.5921V54.7704H35.6424H36.6776L36.704 52.2451L36.7304 49.7199L38.1758 52.2203L39.6214 54.7207L40.8173 54.7486L42.0134 54.7766V50.5952V46.4138H40.9782H39.943L39.9167 48.9755L39.8903 51.5372L39.6565 51.0895C39.5278 50.8433 38.8682 49.6906 38.1905 48.5279L36.9585 46.4138H35.7829H34.6073V50.5921ZM45.3816 46.6347C45.3347 46.7594 44.6417 48.6074 43.8416 50.7414C43.0415 52.8753 42.3661 54.6562 42.3405 54.699C42.315 54.7419 42.817 54.7643 43.4562 54.7487L44.6185 54.7207L44.8713 53.9248L45.1241 53.1289L46.6581 53.1017L48.1923 53.0743L48.4664 53.9224L48.7405 54.7704H49.9299C51.0241 54.7704 51.1136 54.7565 51.0479 54.5963C51.0087 54.5006 50.298 52.6315 49.4688 50.4429L47.9611 46.4636L46.714 46.4357C45.4949 46.4085 45.465 46.4129 45.3816 46.6347ZM46.1361 49.9336C45.8782 50.7201 45.6671 51.3914 45.6671 51.4255C45.6671 51.4596 46.1302 51.4875 46.6963 51.4875H47.7257L47.2148 49.9962C46.9338 49.176 46.6817 48.5047 46.6546 48.5043C46.6274 48.504 46.3941 49.1471 46.1361 49.9336Z" fill="#009478"/>
</svg>
